<svg xmlns="http://www.w3.org/2000/svg" xmlns:xlink="http://www.w3.org/1999/xlink" width="500" zoomAndPan="magnify" viewBox="0 0 375 374.999991" height="500" preserveAspectRatio="xMidYMid meet" version="1.0"><defs><clipPath id="a47d4674b3"><path d="M 40.078125 0 L 178 0 L 178 375 L 40.078125 375 Z M 40.078125 0 " clip-rule="nonzero"/></clipPath><clipPath id="fa063b1d32"><path d="M 85.386719 215.964844 L 107.886719 215.964844 L 107.886719 238.464844 L 85.386719 238.464844 Z M 85.386719 215.964844 " clip-rule="nonzero"/></clipPath></defs><g clip-path="url(#a47d4674b3)"><path fill="#000000" d="M 165.765625 240.152344 L 158.09375 247.605469 C 151.550781 253.96875 143.914062 260.226562 136.226562 265.652344 C 128.445312 271.085938 120.367188 275.988281 112.023438 279.828125 C 103.6875 283.625 95.023438 286.339844 86.589844 287.019531 C 79.335938 287.628906 72.375 286.660156 66.089844 284.023438 C 65.710938 283.109375 65.324219 282.171875 64.972656 281.210938 C 64.242188 279.21875 63.636719 277.144531 63.105469 275.054688 C 62.082031 270.847656 61.445312 266.519531 61.242188 262.15625 C 60.820312 253.433594 62.199219 244.640625 64.960938 236.199219 C 67.742188 227.75 71.992188 219.671875 77.238281 212.132812 C 82.46875 204.589844 88.546875 197.4375 95.355469 190.855469 L 100.492188 185.898438 L 97.75 179.238281 C 97.210938 177.933594 96.46875 175.824219 95.894531 174.011719 C 95.292969 172.125 94.742188 170.199219 94.226562 168.253906 C 93.210938 164.359375 92.371094 160.390625 91.707031 156.394531 C 90.386719 148.402344 89.777344 140.289062 89.953125 132.226562 C 90.355469 116.109375 93.519531 100.101562 100.238281 85.46875 C 106.84375 70.773438 116.84375 57.664062 128.699219 46.230469 C 138.394531 36.957031 149.421875 28.894531 161.203125 21.878906 C 161.921875 25.292969 162.554688 28.796875 163.054688 32.230469 C 164.070312 38.984375 164.765625 45.816406 165.109375 52.664062 C 165.453125 59.515625 165.449219 66.386719 165.09375 73.25 C 164.792969 80.117188 164.167969 86.980469 163.0625 93.777344 C 160.914062 107.378906 157.144531 120.773438 151.664062 133.542969 C 146.210938 146.339844 138.773438 158.328125 129.996094 169.421875 C 140.167969 159.621094 149.167969 148.316406 156.070312 135.722656 C 163.148438 123.21875 168.277344 109.574219 171.707031 95.523438 C 175.238281 81.472656 176.90625 66.976562 177.132812 52.46875 C 177.25 45.207031 177.003906 37.945312 176.402344 30.679688 C 176.105469 27.050781 175.714844 23.417969 175.207031 19.789062 C 174.691406 16.09375 174.144531 12.640625 173.21875 8.695312 L 171.183594 0.0273438 L 162.769531 4.035156 C 146.550781 11.757812 130.945312 21.34375 117.007812 33.402344 C 103.078125 45.429688 91.246094 60.378906 82.929688 77.273438 C 74.640625 94.167969 69.980469 112.941406 69.519531 131.691406 C 69.222656 141.066406 69.835938 150.429688 71.265625 159.667969 C 71.984375 164.28125 72.90625 168.867188 74.046875 173.429688 C 74.621094 175.703125 75.25 177.976562 75.945312 180.25 C 75.976562 180.34375 76.003906 180.429688 76.03125 180.519531 C 70.148438 186.550781 64.609375 193.039062 59.796875 200.171875 C 53.664062 209.175781 48.523438 219.097656 45.125 229.785156 C 41.738281 240.453125 40.0625 251.847656 40.71875 263.207031 C 41.039062 268.882812 41.917969 274.527344 43.332031 280.070312 C 44.0625 282.839844 44.898438 285.582031 45.921875 288.300781 C 46.449219 289.652344 46.984375 291.015625 47.613281 292.367188 L 48.609375 294.425781 C 48.988281 295.167969 49.269531 295.714844 49.890625 296.78125 L 51.378906 299.316406 L 54.039062 300.628906 C 64.792969 305.925781 77.1875 307.539062 88.496094 306.1875 C 99.886719 304.890625 110.339844 301.113281 119.925781 296.40625 C 129.539062 291.683594 138.324219 285.871094 146.5 279.449219 C 151.59375 275.4375 156.390625 271.289062 161.058594 266.875 C 161.613281 269.347656 161.863281 271.878906 161.75 274.457031 C 161.5625 280.648438 159.449219 287.085938 156.121094 293.164062 C 149.441406 305.449219 138.640625 316.050781 127.398438 325.796875 C 116.019531 335.542969 103.480469 344.105469 90.675781 352.304688 C 77.796875 360.390625 64.523438 367.964844 50.878906 374.925781 C 65.378906 369.9375 79.519531 363.863281 93.335938 357.046875 C 107.1875 350.273438 120.570312 342.453125 133.351562 333.433594 C 139.730469 328.914062 145.898438 323.988281 151.648438 318.457031 C 157.40625 312.949219 162.839844 306.878906 167.335938 299.820312 C 171.796875 292.800781 175.421875 284.605469 176.300781 275.488281 C 177.222656 266.390625 174.933594 256.917969 170.664062 249.105469 L 165.765625 240.152344 " fill-opacity="1" fill-rule="nonzero"/></g><path fill="#000000" d="M 316.082031 243.730469 C 303.765625 224.703125 286.863281 209.53125 268.464844 197.738281 C 259.246094 191.8125 249.503906 186.84375 239.574219 182.496094 C 229.5625 178.328125 219.367188 174.601562 208.769531 172.449219 C 218.164062 177.722656 227.285156 183.15625 236.082031 189.015625 C 244.949219 194.738281 253.433594 200.929688 261.570312 207.398438 C 277.796875 220.363281 292.425781 235.03125 303.324219 251.886719 C 314.109375 268.765625 320.609375 288.015625 321.101562 308.226562 C 321.222656 318.273438 320.671875 328.617188 318.28125 338.765625 C 317.5625 343.964844 315.820312 348.910156 314.574219 354.078125 C 314.023438 356.695312 312.960938 359.121094 312.175781 361.671875 C 311.375 364.226562 310.519531 366.769531 309.757812 369.375 C 312.742188 364.929688 315.859375 360.460938 318.453125 355.691406 C 320.90625 350.863281 323.5625 346.050781 325.417969 340.878906 C 329.59375 330.707031 332.035156 319.722656 333.007812 308.515625 C 334.902344 285.996094 328.347656 262.683594 316.082031 243.730469 " fill-opacity="1" fill-rule="nonzero"/><path fill="#000000" d="M 251.578125 123.96875 C 256.066406 117.46875 260.109375 110.621094 263.460938 103.410156 C 265.121094 99.789062 266.679688 96.113281 268.058594 92.332031 C 268.75 90.441406 269.359375 88.511719 269.945312 86.542969 L 270.769531 83.535156 C 271.050781 82.464844 271.265625 81.585938 271.5625 80.140625 L 273.992188 68.1875 L 261.882812 67.632812 C 259.488281 67.523438 257.746094 67.53125 255.75 67.5625 C 253.816406 67.597656 251.90625 67.667969 250 67.78125 C 246.203125 68.035156 242.433594 68.40625 238.691406 68.921875 C 231.199219 69.894531 223.808594 71.410156 216.546875 73.417969 C 202.546875 77.238281 189.097656 83.082031 176.726562 90.597656 C 176.054688 94.289062 175.273438 97.945312 174.359375 101.582031 C 173.523438 105.011719 172.582031 108.414062 171.535156 111.777344 C 175.339844 109.519531 179.199219 107.390625 183.164062 105.480469 C 195.324219 99.632812 208.128906 95.328125 221.25 92.5 C 227.8125 91.097656 234.457031 90.089844 241.101562 89.394531 C 242.964844 89.203125 244.824219 89.054688 246.6875 88.945312 C 245.941406 90.84375 245.15625 92.738281 244.324219 94.613281 C 241.464844 100.785156 238.277344 106.851562 234.570312 112.628906 C 227.222656 124.214844 218.21875 134.8125 207.9375 144.238281 C 197.585938 153.585938 186.011719 161.859375 173.433594 168.828125 C 160.890625 175.890625 147.453125 181.75 133.492188 187.101562 C 148.433594 186.496094 163.367188 183.613281 177.824219 178.753906 C 192.304688 173.933594 206.191406 166.761719 218.78125 157.546875 C 231.375 148.328125 242.535156 136.933594 251.578125 123.96875 " fill-opacity="1" fill-rule="nonzero"/><g clip-path="url(#fa063b1d32)"><path fill="#000000" d="M 108.015625 227.277344 C 108.015625 228.019531 107.941406 228.757812 107.796875 229.484375 C 107.652344 230.214844 107.4375 230.921875 107.152344 231.609375 C 106.867188 232.292969 106.519531 232.945312 106.109375 233.5625 C 105.695312 234.183594 105.226562 234.753906 104.699219 235.277344 C 104.175781 235.804688 103.605469 236.273438 102.984375 236.6875 C 102.367188 237.097656 101.714844 237.445312 101.03125 237.730469 C 100.34375 238.015625 99.636719 238.230469 98.90625 238.375 C 98.179688 238.519531 97.441406 238.59375 96.699219 238.59375 C 95.957031 238.59375 95.222656 238.519531 94.492188 238.375 C 93.765625 238.230469 93.054688 238.015625 92.371094 237.730469 C 91.683594 237.445312 91.03125 237.097656 90.414062 236.6875 C 89.796875 236.273438 89.226562 235.804688 88.699219 235.277344 C 88.175781 234.753906 87.703125 234.183594 87.292969 233.5625 C 86.878906 232.945312 86.53125 232.292969 86.246094 231.609375 C 85.960938 230.921875 85.746094 230.214844 85.601562 229.484375 C 85.457031 228.757812 85.386719 228.019531 85.386719 227.277344 C 85.386719 226.535156 85.457031 225.800781 85.601562 225.070312 C 85.746094 224.34375 85.960938 223.632812 86.246094 222.949219 C 86.53125 222.261719 86.878906 221.609375 87.292969 220.992188 C 87.703125 220.375 88.175781 219.804688 88.699219 219.277344 C 89.226562 218.753906 89.796875 218.285156 90.414062 217.871094 C 91.03125 217.457031 91.683594 217.109375 92.371094 216.824219 C 93.054688 216.539062 93.765625 216.324219 94.492188 216.179688 C 95.222656 216.035156 95.957031 215.964844 96.699219 215.964844 C 97.441406 215.964844 98.179688 216.035156 98.90625 216.179688 C 99.636719 216.324219 100.34375 216.539062 101.03125 216.824219 C 101.714844 217.109375 102.367188 217.457031 102.984375 217.871094 C 103.605469 218.285156 104.175781 218.753906 104.699219 219.277344 C 105.226562 219.804688 105.695312 220.375 106.109375 220.992188 C 106.519531 221.609375 106.867188 222.261719 107.152344 222.949219 C 107.4375 223.632812 107.652344 224.34375 107.796875 225.070312 C 107.941406 225.800781 108.015625 226.535156 108.015625 227.277344 Z M 108.015625 227.277344 " fill-opacity="1" fill-rule="nonzero"/></g></svg>